<svg version="1.1" id="Layer_1" xmlns="http://www.w3.org/2000/svg" xmlns:xlink="http://www.w3.org/1999/xlink" x="0px" y="0px"
	 width="100%" viewBox="0 0 311 317" enable-background="new 0 0 311 317" xml:space="preserve">
<path fill="#000000" opacity="1.000000" stroke="none" 
	d="
M174.000000,318.000000 
	C117.333359,318.000000 61.166626,317.960327 5.000317,318.097137 
	C1.575479,318.105469 0.900604,317.424225 0.904505,313.999969 
	C1.021846,211.000168 1.021830,108.000160 0.904550,5.000340 
	C0.900652,1.576789 1.575316,0.900449 4.999876,0.904445 
	C105.999695,1.022284 206.999710,1.022256 307.999512,0.904529 
	C311.422791,0.900539 312.099426,1.574908 312.095520,4.999725 
	C311.978149,107.999550 311.978149,210.999557 312.095398,313.999359 
	C312.099274,317.422241 311.427002,318.109436 308.000214,318.098053 
	C263.500519,317.950104 219.000183,318.000000 174.000000,318.000000 
z"/>
<path fill="#FFFFFF" opacity="1.000000" stroke="none" 
	d="
M195.150421,161.901031 
	C191.350449,165.232925 189.672333,164.634048 186.980865,159.681717 
	C185.935822,160.677628 184.861557,161.159058 184.209229,162.566681 
	C181.143173,163.102844 178.120453,163.601395 176.692154,160.193802 
	C175.606277,157.603134 175.069550,154.926086 177.816833,152.418915 
	C177.944580,150.679932 178.598328,149.793152 180.290131,149.472107 
	C181.286621,149.431015 181.903961,150.369553 182.559265,149.581879 
	C182.630569,149.496140 182.221252,149.143204 181.654907,148.902130 
	C181.003799,148.604477 180.645584,148.398285 180.038895,147.984421 
	C179.435471,147.541626 179.099625,147.275772 178.525421,146.790192 
	C177.986847,146.255478 177.774551,145.887177 177.807892,145.180237 
	C177.804108,142.206482 178.943100,140.295151 181.679306,140.062500 
	C184.463486,139.825775 185.885727,141.515869 185.997025,144.270401 
	C186.057571,145.768661 186.485992,146.739471 188.002716,145.418900 
	C189.465851,144.144958 192.453506,146.494537 192.893936,143.613251 
	C193.297592,140.972504 190.856720,142.399933 189.688324,141.995850 
	C189.091202,141.789307 188.061279,141.702072 187.963608,141.354141 
	C186.597504,136.487640 183.023773,139.068359 180.262711,139.005844 
	C176.359833,138.917465 172.571716,135.141815 174.183273,132.088669 
	C177.268616,126.243416 174.275726,121.323166 172.889206,116.159149 
	C172.306335,113.988289 169.109543,114.999916 167.464615,113.158936 
	C166.488480,113.589882 165.818359,113.566208 164.921082,112.900230 
	C164.736801,112.106186 164.865860,111.594048 164.780426,111.114891 
	C164.677383,110.537033 165.031250,109.735695 164.212372,109.450203 
	C163.943176,109.356346 163.520752,109.678322 163.508698,110.003090 
	C163.482697,110.704590 164.265930,110.998566 164.509369,111.959198 
	C164.815109,113.707352 166.001938,114.909126 165.235016,116.800415 
	C162.830063,119.967644 160.421463,115.847687 157.998047,117.653358 
	C156.725250,118.797379 155.460205,119.366989 154.255096,120.603210 
	C150.776321,121.946800 148.088531,119.917030 144.992096,119.670334 
	C144.716278,120.175957 144.604462,120.336082 144.251160,120.662125 
	C141.942703,122.369598 140.073746,122.603447 137.991348,120.597878 
	C135.555359,118.251762 131.570816,121.588280 129.045105,118.531769 
	C128.915634,118.375092 128.063629,119.876373 129.070160,120.587753 
	C130.715576,121.750679 131.309128,123.295715 130.910431,125.621513 
	C129.681870,127.730873 130.122086,130.397324 127.357727,131.526825 
	C124.627373,132.645737 122.178596,131.743759 119.291229,131.501465 
	C120.574852,134.679520 122.435524,138.237717 120.503593,140.364960 
	C117.288124,143.905533 115.449005,147.475571 115.259071,152.206451 
	C115.205063,153.551682 113.656113,154.650986 112.189163,155.120987 
	C116.627693,154.624191 116.632118,154.623734 116.147461,149.971939 
	C116.043755,148.976639 115.646950,147.483704 116.209091,147.071716 
	C121.310783,143.332642 119.942772,135.194931 126.634941,132.297241 
	C127.448929,132.169815 127.915123,132.197647 128.695129,132.439072 
	C130.075180,133.722488 131.256134,134.726059 132.850998,135.752441 
	C136.940414,142.247482 135.111664,144.995224 125.237076,146.650726 
	C130.191925,148.692596 134.041809,150.941177 127.737228,155.694351 
	C130.676712,156.362137 134.661118,154.989929 133.930771,159.618011 
	C133.531113,162.150665 131.905365,162.818192 129.350632,160.996017 
	C128.113800,160.215408 128.931900,159.063065 128.217422,158.316498 
	C128.087112,157.735794 127.715401,158.391098 128.032318,158.510895 
	C128.978638,158.868622 128.296295,159.853409 128.225037,160.837723 
	C128.039886,161.108002 127.982224,161.574570 127.904816,161.796509 
	C127.697716,162.201813 127.568008,162.385193 127.239029,162.840240 
	C126.562492,164.427628 125.373978,164.060242 124.501389,164.010696 
	C119.992607,163.754730 115.283424,164.845963 111.191811,164.368164 
	C108.650375,164.071396 106.167542,163.485260 103.396469,163.917404 
	C100.743195,164.331161 97.748108,163.796265 97.129898,160.683472 
	C96.491699,157.470016 96.502586,154.103043 100.729179,152.566589 
	C101.817482,152.170990 104.191139,152.852814 104.091721,150.004044 
	C103.986626,146.992126 101.737450,148.545090 100.607254,147.819199 
	C99.395645,147.041031 97.958099,146.232101 98.024422,144.475998 
	C98.130928,141.656067 101.126823,142.053146 102.727875,140.301773 
	C101.056938,139.665771 98.512741,140.554672 98.063042,138.080917 
	C97.796677,136.615707 97.722870,135.031006 99.890778,134.507965 
	C100.985603,134.556046 101.760803,134.571716 102.505516,134.384338 
	C102.011139,134.467712 101.513107,134.473297 100.614365,134.461319 
	C98.313370,131.918304 96.837646,129.377396 98.959938,126.139961 
	C100.478783,123.823067 102.692291,124.044235 104.935249,123.988319 
	C107.589081,123.922157 108.394112,125.996086 109.471474,127.789719 
	C111.030525,125.072990 112.504677,122.869019 116.400772,124.631248 
	C118.562622,125.609062 118.160164,122.750847 119.327454,121.423126 
	C116.675392,120.807594 114.035332,121.241722 112.124229,119.595192 
	C110.715919,118.381851 110.063156,119.438354 109.290260,120.236816 
	C106.425247,123.196632 103.436996,123.982590 99.802475,121.369194 
	C96.121780,118.722603 96.153999,114.796700 97.370453,111.586296 
	C98.716042,108.035072 102.604111,107.632935 106.252434,108.051346 
	C106.785820,108.112518 107.141190,109.198746 108.529999,107.465172 
	C101.514366,107.088661 95.794487,105.392090 98.820984,96.482773 
	C98.427406,95.278580 98.149055,94.314171 97.390289,93.186096 
	C97.009521,92.634033 96.984138,92.364464 97.162811,91.886688 
	C97.358009,91.436104 97.481361,91.181244 97.802261,90.550400 
	C101.471519,87.719620 102.184692,90.746201 103.676277,93.017418 
	C104.104507,93.296249 104.209427,93.426125 104.276466,93.786896 
	C103.979126,94.165451 103.571762,94.459503 103.634575,94.581398 
	C103.937622,95.169411 103.348045,94.457176 104.270981,94.406609 
	C105.067795,94.255661 105.601402,94.330826 106.366837,94.426865 
	C106.599205,94.434052 106.979828,94.253418 107.019287,94.039917 
	C106.894119,93.357544 106.675644,92.912392 106.312897,92.233566 
	C106.204979,90.723564 106.243370,89.446327 106.531197,87.871216 
	C106.292656,86.368332 107.570099,86.528305 108.316399,85.796402 
	C113.712143,84.592690 114.838120,85.263008 116.177811,90.441513 
	C116.139610,91.071388 116.104767,91.316444 115.961960,91.905449 
	C115.543259,92.865814 115.090843,93.304649 114.174255,93.453140 
	C113.965675,93.483147 113.685074,93.604492 113.803246,93.573792 
	C114.159157,93.510544 114.398048,93.495377 114.887398,93.452332 
	C115.630119,93.152687 116.023148,92.778450 116.530594,92.101807 
	C119.487282,85.858276 113.021622,84.673523 110.959457,81.522591 
	C110.820885,82.744263 110.413216,84.319275 108.660217,85.536957 
	C107.821159,86.152229 107.221794,86.474579 106.224960,86.754105 
	C99.656914,86.140175 97.165611,83.518456 98.033218,78.512276 
	C98.193260,77.588768 98.626808,75.977722 99.038368,75.943672 
	C104.654907,75.478859 106.695122,68.316208 112.905403,68.746902 
	C111.493530,67.564743 112.538651,64.463142 108.632835,65.502579 
	C105.491020,66.338707 104.599236,67.332451 104.910690,70.594391 
	C104.702072,71.196381 104.570740,71.375137 104.247795,71.825905 
	C104.056183,72.097916 104.020599,72.018684 104.060165,72.036575 
	C103.917343,72.183266 103.734955,72.312050 103.281189,72.637123 
	C98.966408,73.619171 96.204918,72.867035 97.089371,67.417267 
	C97.845940,66.384422 98.749710,66.136131 99.736893,65.379852 
	C100.129143,64.181244 104.870522,66.718697 101.578484,62.999336 
	C99.403435,60.541973 99.552826,57.704449 101.473885,55.011089 
	C103.405952,52.302292 106.121193,51.131248 109.185432,52.195187 
	C110.814316,52.760750 111.603485,52.871464 112.947212,51.659008 
	C117.256912,47.770309 118.659813,48.044155 122.376602,52.838795 
	C122.812660,53.401306 123.420494,54.282524 124.579224,53.068710 
	C127.034760,52.492115 129.178085,52.836891 131.681107,52.921410 
	C136.485947,55.012077 135.456451,58.530735 133.972855,61.765438 
	C132.203491,65.623169 129.129211,65.934494 123.298523,63.172340 
	C123.095779,68.997826 119.488602,70.583450 114.430771,70.041039 
	C114.437347,74.112976 117.592232,72.408249 119.396500,73.175888 
	C121.856400,74.222443 121.403404,71.897430 121.932121,71.050392 
	C123.788414,68.076530 126.655334,67.178001 129.469284,68.329575 
	C132.375610,69.518967 133.733521,72.365997 132.969284,75.705498 
	C132.252518,78.837486 130.157333,80.109634 126.991905,80.031799 
	C124.993851,79.982666 122.051422,78.532692 122.476357,82.793434 
	C123.746101,83.711563 125.929443,82.078445 127.646378,84.006592 
	C128.176346,84.251625 128.352707,84.330681 128.709717,84.183014 
	C128.930817,83.514946 128.971283,83.073624 129.089264,82.308380 
	C129.279755,81.824776 129.392761,81.665077 129.747833,81.339554 
	C129.989929,81.173721 130.430191,81.018692 130.661743,80.989563 
	C131.357605,80.613770 131.874786,80.492630 132.804718,80.799347 
	C136.099319,84.550964 135.850143,85.779999 131.948486,87.000832 
	C131.148392,87.251183 128.193558,93.434586 128.609741,94.046913 
	C129.481537,95.329590 130.322952,94.670799 131.492294,94.287750 
	C133.310349,93.692177 135.442093,93.367882 136.853989,95.396347 
	C138.209702,97.344048 137.809875,99.210396 136.502258,101.024284 
	C136.029572,101.680000 134.695480,101.973152 135.728531,103.284119 
	C138.205673,106.427666 136.382797,109.308533 135.061554,112.571404 
	C135.097565,113.319160 135.226761,113.620712 135.781677,113.866852 
	C138.455215,113.256096 140.307617,110.956390 143.503983,112.704796 
	C145.325912,113.701393 145.459763,109.936462 147.556091,109.092308 
	C149.190933,107.170898 151.691528,108.834534 153.042999,106.859818 
	C152.956009,105.629120 152.947754,104.716354 153.231461,103.658340 
	C152.328125,105.330910 151.070297,106.375381 148.683502,106.867661 
	C143.985733,107.747589 140.985260,105.542191 139.383835,102.586441 
	C138.053146,100.130402 138.371414,96.547188 140.457214,94.232384 
	C142.799545,91.632896 145.978485,91.028732 149.649841,93.005295 
	C150.197464,93.303833 150.376480,93.431274 150.819275,93.756393 
	C151.083054,93.954063 151.009399,93.989014 151.029099,93.953331 
	C151.342621,94.259499 151.452606,94.677788 151.542282,95.104523 
	C151.641205,94.871017 151.514832,94.622894 151.774872,94.140862 
	C152.156494,93.320465 152.380112,92.238823 152.543457,92.247849 
	C156.574005,92.470612 160.657578,92.512085 164.588974,93.299004 
	C165.845276,93.550476 166.286469,93.273209 166.804688,92.662773 
	C167.838257,91.445305 169.031067,90.584579 170.629242,91.027458 
	C173.981842,91.956520 175.046524,89.779373 176.072632,86.960358 
	C178.733795,85.817947 181.308014,85.133163 184.419983,86.101746 
	C188.269180,87.782051 188.758865,90.428391 187.406082,94.073013 
	C186.674240,95.248833 186.042404,96.046616 184.801727,96.703697 
	C184.003067,97.152054 182.939346,97.124687 183.092316,97.581551 
	C183.256561,98.072098 184.179321,97.622459 185.082672,97.470062 
	C186.412079,97.136642 186.521011,96.327568 186.767914,95.209900 
	C187.641922,94.319160 187.466476,93.198944 188.603210,92.541321 
	C190.319992,92.216011 191.789322,92.815170 193.176208,92.013977 
	C192.417038,91.085526 191.424332,91.862480 190.243591,91.621239 
	C187.673431,90.752495 188.028900,88.071503 186.170410,86.594322 
	C184.444183,85.836777 182.795197,85.866928 181.216003,84.740616 
	C180.251465,83.866600 179.638657,83.930573 178.882996,85.018616 
	C178.116013,85.732880 177.471054,85.979446 176.487823,86.337753 
	C173.927032,85.273804 173.469696,83.142967 174.115601,81.049858 
	C174.778625,78.901352 177.065140,79.818481 178.309753,80.117546 
	C181.410599,80.862640 181.133179,76.013840 184.485962,76.977509 
	C185.090851,76.847351 185.295288,76.737137 185.806396,76.792236 
	C189.875412,76.899590 186.793808,73.409637 188.216644,72.574120 
	C192.266739,70.195786 189.050461,67.349777 188.874817,64.769997 
	C188.799561,63.664894 187.634781,62.743237 186.262192,63.041027 
	C183.828262,63.569077 186.097244,64.848106 186.138550,65.539902 
	C186.340347,68.919640 185.890244,72.096359 182.695724,73.601334 
	C180.787827,74.500175 178.367828,74.615417 176.213882,72.822701 
	C173.761414,70.781502 173.524109,68.276085 174.188568,65.696251 
	C174.848495,63.134056 176.868835,61.844124 179.651428,61.988365 
	C180.952164,62.055790 182.259308,61.999901 183.745972,61.999901 
	C182.869812,59.709370 180.732178,58.215786 181.036377,55.383354 
	C183.685501,49.349270 185.888535,48.223553 191.642395,49.998032 
	C192.675385,51.057297 193.154907,52.135315 194.565994,52.790661 
	C199.495331,51.360493 199.804901,51.423355 204.519821,55.097294 
	C205.390533,52.338455 204.924149,48.267235 209.881744,49.555340 
	C210.169952,50.074642 210.305817,50.255413 210.637360,50.713242 
	C211.520493,53.437832 208.889648,55.938629 210.951416,58.364098 
	C209.492767,59.140984 210.819687,61.555172 208.995789,61.962460 
	C205.304688,62.786709 206.035828,65.601479 206.057159,68.538696 
	C206.038757,70.568893 207.642181,69.931931 208.552460,70.792343 
	C209.175568,75.258904 208.260269,79.562157 209.647064,83.985062 
	C210.201965,84.303055 210.385345,84.432449 210.840012,84.761177 
	C213.950027,89.789154 210.044373,89.986481 205.272873,90.385674 
	C209.001266,92.356964 213.130508,91.862564 211.909897,96.596207 
	C211.211487,97.674812 210.822144,98.492073 210.209564,99.567383 
	C206.821457,101.649849 205.547363,99.078003 204.086105,97.172379 
	C203.411728,96.292931 204.966217,94.193520 202.878464,94.116982 
	C201.161377,94.054031 201.269241,96.261436 200.146606,97.544434 
	C200.171692,98.067970 200.306000,98.250916 200.636505,98.712067 
	C200.832703,98.990257 200.989639,99.423683 201.014099,99.652863 
	C201.171951,100.065155 201.305344,100.248276 201.632507,100.710548 
	C202.228210,102.818977 202.041153,104.555710 200.840591,106.805038 
	C199.721161,108.044830 198.599854,108.127670 197.264877,108.611038 
	C196.733475,108.771530 196.516357,108.825981 195.963226,108.925484 
	C193.156601,107.799309 191.061356,108.047157 189.297913,110.778992 
	C188.516220,111.457108 187.769272,111.463943 186.979874,112.114815 
	C186.012650,113.084351 185.535553,113.894295 185.788177,115.001480 
	C185.971786,115.806099 185.986053,116.636009 185.930618,117.467796 
	C186.234055,115.865852 185.495834,114.120338 186.779297,112.351746 
	C187.564972,111.582764 188.335968,111.491241 189.226929,110.833618 
	C191.205719,109.724266 192.974442,109.632591 195.169373,110.098831 
	C196.274628,110.517151 196.836868,111.032654 197.501923,111.985077 
	C198.024063,112.980156 198.255203,113.686996 198.545578,114.755905 
	C198.655670,115.590973 198.592636,116.057480 198.190796,116.771729 
	C197.524353,117.546043 196.807358,117.834450 196.699097,118.612587 
	C196.980377,118.230087 197.253647,117.841454 197.796509,117.219971 
	C198.212021,116.809166 198.396500,116.660744 198.902435,116.350151 
	C199.946045,116.000633 200.667374,116.027542 201.733490,116.316917 
	C203.425629,117.509430 205.183182,117.671791 206.877853,118.770233 
	C206.704681,120.886124 208.749954,122.320641 207.901672,124.612076 
	C207.142548,125.757431 206.748856,126.679123 206.198364,127.857330 
	C206.226166,128.759674 204.367126,129.380341 205.848221,129.930191 
	C211.337112,131.967911 213.393539,134.813080 211.827332,138.491302 
	C210.250839,142.193604 206.563599,142.993683 201.310303,140.773453 
	C200.526978,142.986176 200.946655,143.955963 203.652084,144.071442 
	C211.498032,144.406357 212.997253,146.934357 209.980713,154.659698 
	C208.388733,156.420380 206.470367,156.338058 204.344116,156.734070 
	C203.839615,156.873657 203.667496,156.924530 203.235687,156.904480 
	C201.227417,156.867020 199.980270,157.280289 200.979462,159.790131 
	C200.096603,161.462021 198.777298,160.877167 197.315613,160.909729 
	C196.234634,160.318893 195.913528,159.515991 195.557159,158.474457 
	C195.500687,158.249619 195.320999,157.877258 195.345795,158.104599 
	C195.869797,159.443237 195.878662,160.544342 195.150421,161.901031 
z"/>
<path fill="#FFFFFF" opacity="1.000000" stroke="none" 
	d="
M134.446014,211.687210 
	C135.199280,219.552170 136.220993,227.365021 129.138062,233.509705 
	C123.041672,238.798508 116.676064,240.064331 110.002007,237.357056 
	C102.928749,234.487869 98.775993,228.867905 98.008171,221.063812 
	C97.842079,219.375778 98.375198,217.564926 97.111900,215.247574 
	C95.365646,217.762512 96.078720,219.924042 96.038506,221.872940 
	C95.928581,227.199982 96.096176,232.533112 95.965820,237.859238 
	C95.879707,241.377762 93.802216,243.070236 90.317093,242.992233 
	C86.861488,242.914886 85.926483,240.826126 85.972534,237.723480 
	C86.063820,231.573990 85.999496,225.422165 85.999496,218.882034 
	C78.560997,221.403473 71.473450,223.806885 64.385132,226.208069 
	C62.395088,226.882202 61.791656,228.195801 61.952141,230.311707 
	C62.349224,235.547089 61.808384,240.690689 60.016079,245.696472 
	C57.904007,251.595352 52.470783,254.679214 46.909355,252.946945 
	C43.274235,251.814667 38.939388,243.869781 40.076904,239.833023 
	C41.958694,233.155014 43.784691,226.367599 50.720348,222.762482 
	C52.273018,221.955399 52.043209,220.278824 52.037388,218.780655 
	C52.010864,211.952606 52.252129,205.112976 51.920357,198.300735 
	C51.729805,194.388107 53.113365,192.152267 56.881756,192.083954 
	C60.682774,192.015045 61.729500,195.235413 61.908237,198.162842 
	C62.232418,203.472366 62.050041,208.816528 61.977478,214.144836 
	C61.946842,216.394318 62.264427,217.869019 64.983871,216.547272 
	C70.048775,214.085556 75.500107,212.716629 80.825012,210.995590 
	C84.537697,209.795639 86.660408,207.667496 86.057732,203.420975 
	C85.779633,201.461441 86.186043,199.409790 85.960503,197.436676 
	C85.537933,193.740067 87.669052,192.256317 90.749283,192.075714 
	C93.864082,191.893066 95.360611,194.159424 95.970490,196.910400 
	C96.552406,199.535263 94.585373,203.386597 97.014259,204.582291 
	C98.701332,205.412811 101.944710,203.085617 104.491440,202.165512 
	C111.365601,199.681915 118.205063,197.476364 125.444168,201.106430 
	C129.978683,203.380280 132.296997,207.314392 134.446014,211.687210 
z"/>
<path fill="#FEFEFE" opacity="1.000000" stroke="none" 
	d="
M185.042389,191.998840 
	C190.893478,192.005310 196.329620,191.552124 201.350128,194.109818 
	C211.678467,199.371521 211.803131,213.905029 207.513168,220.955261 
	C204.145676,226.489502 199.012161,229.066864 192.542175,228.991379 
	C191.710663,228.981674 190.878967,228.989426 190.047348,228.989395 
	C182.060074,228.988983 182.014236,228.989075 182.024597,236.921021 
	C182.028519,239.921402 181.922607,242.687958 177.998520,242.982544 
	C173.881653,243.291595 172.188248,240.358688 172.119797,237.229736 
	C171.839737,224.428909 171.844666,211.615341 172.090363,198.813095 
	C172.174393,194.434647 174.584686,191.574738 179.571579,191.977798 
	C181.224014,192.111343 182.896332,191.998840 185.042389,191.998840 
z"/>
<path fill="#FFFFFF" opacity="1.000000" stroke="none" 
	d="
M134.822815,211.808685 
	C135.496811,209.226807 134.299286,206.726166 134.818222,203.925583 
	C135.983536,197.636566 139.050812,193.567657 145.208328,191.944458 
	C151.480286,190.291092 157.663574,190.283768 163.763474,192.921005 
	C166.528656,194.116516 167.562668,196.120468 166.924774,198.809067 
	C166.215805,201.797211 163.759018,202.388901 161.092163,201.964569 
	C159.037109,201.637573 156.944061,201.222610 155.021317,200.459976 
	C151.200211,198.944412 148.207993,200.885223 145.713745,203.016296 
	C143.694031,204.741928 143.517868,207.023026 146.378189,209.185776 
	C150.166183,212.049957 154.700912,212.401688 158.867706,213.896561 
	C167.371582,216.947403 170.722443,222.826324 168.992462,232.640488 
	C168.137131,237.492752 160.601257,242.916870 154.513870,242.980743 
	C149.146988,243.037079 143.878952,243.083115 138.791412,240.495773 
	C135.046890,238.591431 133.860947,235.683838 135.392136,232.560440 
	C136.845993,229.594757 140.481354,230.544968 142.946869,231.556885 
	C147.375397,233.374496 151.653427,234.895462 156.373520,232.871750 
	C158.395493,232.004852 159.840881,230.639359 159.992645,228.292923 
	C160.146011,225.921600 158.718582,224.676849 156.709412,223.983856 
	C153.093018,222.736511 149.497986,221.383743 145.805481,220.411301 
	C141.022079,219.151550 137.583038,216.446640 135.083221,211.851166 
	C134.705307,211.689209 134.780945,211.771606 134.822815,211.808685 
z"/>
<path fill="#FFFFFF" opacity="1.000000" stroke="none" 
	d="
M247.217529,232.067169 
	C251.618378,233.684708 255.562637,233.447800 259.461884,231.831390 
	C261.300323,231.069290 262.954559,229.940521 265.204529,230.592346 
	C267.435059,231.238556 268.803558,233.133255 268.776520,234.727631 
	C268.731842,237.361542 266.769348,239.724625 264.387115,240.784851 
	C250.683609,246.883636 233.569855,240.982956 227.760284,226.160400 
	C223.640671,215.649582 228.078369,201.841797 235.311203,196.110443 
	C243.410751,189.692307 255.082001,187.579346 265.292847,192.979935 
	C268.827881,194.849655 269.521362,197.600922 267.894257,200.716797 
	C266.360748,203.653397 263.682678,203.463715 260.904449,202.010620 
	C248.094986,195.310898 234.406815,205.328949 235.926651,218.965271 
	C236.503235,224.138535 240.845169,229.812393 247.217529,232.067169 
z"/>
<path fill="#FEFEFE" opacity="1.000000" stroke="none" 
	d="
M212.998108,205.065765 
	C213.004547,202.085831 212.674423,199.535065 213.108047,197.121536 
	C213.582031,194.483246 214.560471,191.681717 218.192307,192.023560 
	C221.740555,192.357513 223.081757,194.605057 223.011810,197.979935 
	C222.956802,200.635117 223.001633,203.292343 223.001678,205.948669 
	C223.001831,216.408035 222.941284,226.867950 223.035767,237.326462 
	C223.067490,240.838608 222.142776,242.946503 218.109619,243.059082 
	C213.930023,243.175751 213.085098,240.525116 213.047760,237.431335 
	C212.919525,226.807373 212.998260,216.180939 212.998108,205.065765 
z"/>
<path fill="#FFFFFF" opacity="1.000000" stroke="none" 
	d="
M197.195221,113.220444 
	C196.731262,112.480736 196.453171,111.958557 196.065979,111.160934 
	C195.407196,110.244377 195.265015,109.515678 195.691406,108.373901 
	C196.078506,108.031219 196.263016,108.022949 196.724411,108.005188 
	C197.958939,107.173126 199.135696,107.677422 200.479614,107.298920 
	C200.764587,107.129517 200.923889,107.034554 201.003204,106.986496 
	C201.654572,106.798698 202.698639,106.725273 202.728943,106.509445 
	C203.330490,102.226982 206.045288,101.481171 209.865326,102.539719 
	C210.170074,103.070274 210.304459,103.251060 210.629974,103.710510 
	C209.973038,107.854340 212.198547,111.399628 211.910507,115.598816 
	C211.129333,116.704269 210.070724,116.886833 209.223465,117.881233 
	C208.884354,118.835770 208.363663,119.013992 207.415070,119.022232 
	C205.469879,118.657463 203.460190,119.831619 202.090057,117.527298 
	C201.534195,115.637039 200.398636,116.799461 199.361725,116.764709 
	C198.928741,116.965981 198.743042,116.974190 198.278687,116.991196 
	C197.999847,116.555542 197.999680,116.111092 197.999146,115.333298 
	C197.546265,114.576828 197.534729,113.979309 197.195221,113.220444 
z"/>
<path fill="#FBFBFB" opacity="1.000000" stroke="none" 
	d="
M88.072258,264.978027 
	C83.018257,264.370087 81.879372,261.164520 83.318916,257.567444 
	C84.399536,254.867203 86.952217,253.679733 90.503510,254.846695 
	C93.961403,255.982971 92.838684,258.354095 92.971954,260.426056 
	C93.168648,263.484192 91.600388,265.050842 88.072258,264.978027 
z"/>
<path fill="#F9F9F9" opacity="1.000000" stroke="none" 
	d="
M175.666397,261.605957 
	C174.241501,262.305511 176.337387,265.202240 173.315857,264.948212 
	C170.707260,264.728882 170.979767,262.642303 170.988586,260.815857 
	C170.992599,259.982574 171.026566,259.147217 170.981766,258.316345 
	C170.892014,256.652222 170.712631,254.935135 172.962250,254.547241 
	C175.598389,254.092697 174.584793,256.702026 175.422821,257.738556 
	C176.683289,256.665436 176.314789,253.927963 178.227493,254.208252 
	C180.624161,254.559479 179.947739,256.969299 179.976486,258.714050 
	C179.992950,259.713501 180.125977,260.752319 179.905289,261.703583 
	C179.647873,262.813202 180.946030,264.660858 178.834366,264.936157 
	C176.740173,265.209198 175.892654,263.855286 175.666397,261.605957 
z"/>
<path fill="#FBFBFB" opacity="1.000000" stroke="none" 
	d="
M182.658539,263.167786 
	C181.718994,257.230469 183.493546,254.115738 187.091660,254.638046 
	C189.265274,254.953583 191.484055,255.677521 191.900818,258.072754 
	C192.282074,260.263977 192.703384,262.993469 190.130875,264.279694 
	C187.731003,265.479614 185.107178,265.840240 182.658539,263.167786 
z"/>
<path fill="#FBFBFB" opacity="1.000000" stroke="none" 
	d="
M96.199844,264.607605 
	C93.621704,257.148346 94.716904,254.650757 99.816826,254.940079 
	C102.540695,255.094574 102.799652,256.501221 103.075340,258.780640 
	C103.720314,264.113556 101.227074,265.592804 96.199844,264.607605 
z"/>
<path fill="#F9F9F9" opacity="1.000000" stroke="none" 
	d="
M217.790375,259.374390 
	C217.817612,260.395538 217.451691,261.699036 217.528030,261.725494 
	C220.348572,262.702301 218.776978,264.335419 217.586517,264.651459 
	C215.859741,265.109863 212.735916,266.007233 212.285782,264.158295 
	C211.589355,261.297638 211.073090,257.846497 212.682480,255.032898 
	C213.400116,253.778336 214.684128,251.162781 216.647919,252.464401 
	C218.878586,253.942902 219.025909,256.597717 217.790375,259.374390 
z"/>
<path fill="#FBFBFB" opacity="1.000000" stroke="none" 
	d="
M220.991577,258.142700 
	C220.503494,254.908737 222.258987,255.126694 224.204102,254.914398 
	C227.360794,254.569870 228.268677,256.793915 228.878815,258.856995 
	C229.473969,260.869476 228.718216,262.758453 226.655060,264.085938 
	C225.108276,265.081207 223.240311,265.554657 222.045364,264.838898 
	C219.663773,263.412292 221.539352,260.691742 220.991577,258.142700 
z"/>
<path fill="#FDFDFD" opacity="1.000000" stroke="none" 
	d="
M63.767960,261.407898 
	C63.787727,262.837158 64.405769,264.976532 63.335423,264.766876 
	C60.962345,264.302155 58.480286,265.491730 56.517876,264.614166 
	C54.747814,263.822662 56.815243,262.108673 57.042507,260.781830 
	C57.136612,260.232422 57.664139,259.661041 57.564987,259.190063 
	C56.826630,255.683090 57.051487,256.571289 60.336597,255.606689 
	C65.999062,253.944046 63.850258,256.715057 63.067249,259.241333 
	C62.911797,259.742889 63.383247,260.438721 63.767960,261.407898 
z"/>
<path fill="#FAFAFA" opacity="1.000000" stroke="none" 
	d="
M47.223328,263.560547 
	C46.675320,260.692322 47.258705,258.342621 48.002895,255.996353 
	C48.668732,253.897110 50.313580,253.719513 51.990749,254.060959 
	C53.724003,254.413818 54.694901,255.905991 53.764488,257.382355 
	C52.923004,258.717560 54.015869,259.438110 53.985371,260.462189 
	C53.833534,265.560822 52.896919,266.091736 47.223328,263.560547 
z"/>
<path fill="#FEFEFE" opacity="1.000000" stroke="none" 
	d="
M147.593994,255.147049 
	C150.389008,254.853271 152.322174,255.269592 150.299118,258.156342 
	C148.787735,260.312958 149.743896,264.466492 146.607651,264.797150 
	C142.795547,265.199066 144.212082,260.471313 142.311523,258.626007 
	C141.571915,257.907867 141.358032,256.648254 140.875900,255.571014 
	C142.869202,254.569717 144.356659,254.859756 145.903564,256.279083 
	C147.151047,257.423676 146.827759,255.700500 147.593994,255.147049 
z"/>
<path fill="#FBFBFB" opacity="1.000000" stroke="none" 
	d="
M70.830627,262.047882 
	C69.619041,263.041504 70.691277,265.501007 68.114456,264.978149 
	C66.280510,264.605988 65.756920,263.248352 66.053352,261.659607 
	C66.483536,259.353943 64.340462,255.929199 68.318542,255.111053 
	C70.057472,254.753433 72.544029,254.068634 73.672615,256.351990 
	C74.952377,258.941254 73.331978,260.653595 70.830627,262.047882 
z"/>
<path fill="#FCFCFC" opacity="1.000000" stroke="none" 
	d="
M234.100220,255.016983 
	C237.409454,256.627869 237.737869,259.830261 238.926392,262.471222 
	C239.226196,263.137451 239.145096,265.228302 238.225113,264.813110 
	C235.541962,263.602234 233.210648,264.337280 230.618866,264.767578 
	C229.605026,264.935883 229.766144,262.660187 230.133377,261.788727 
	C231.118408,259.451111 232.484924,257.274292 234.100220,255.016983 
z"/>
<path fill="#FEFEFE" opacity="1.000000" stroke="none" 
	d="
M105.000366,263.017944 
	C105.388252,261.568115 105.578239,260.380798 106.206917,259.510223 
	C107.380844,257.884552 106.576187,254.340515 110.247078,255.063202 
	C111.187149,255.248276 114.364853,263.338165 113.964699,264.222168 
	C113.897881,264.369751 113.729706,264.627655 113.726318,264.625732 
	C110.974106,263.071442 107.644005,265.700165 105.000366,263.017944 
z"/>
<path fill="#FEFEFE" opacity="1.000000" stroke="none" 
	d="
M129.067749,255.575851 
	C129.697510,256.201172 130.285187,256.878113 130.415344,256.799316 
	C131.727829,256.004761 133.056900,253.891800 134.512878,255.313278 
	C136.141190,256.903015 134.471283,258.945099 133.703827,260.677765 
	C133.248489,261.705780 132.615082,262.654480 132.069534,263.643158 
	C131.849152,264.042511 131.745377,264.673401 131.421173,264.814575 
	C130.671021,265.141235 129.549484,265.295044 129.182236,264.511932 
	C127.901329,261.780426 126.188171,259.095032 126.122986,256.030212 
	C126.085052,254.246170 127.778267,255.141129 129.067749,255.575851 
z"/>
<path fill="#FCFCFC" opacity="1.000000" stroke="none" 
	d="
M194.256104,258.653412 
	C194.354202,255.459396 196.051224,254.564941 198.712738,255.002502 
	C199.966797,255.208679 201.410828,256.495697 200.852509,257.033325 
	C198.413818,259.381592 203.994476,263.510406 198.920090,264.974792 
	C195.226089,266.040802 194.017181,264.413422 194.256104,258.653412 
z"/>
<path fill="#FBFBFB" opacity="1.000000" stroke="none" 
	d="
M156.787613,255.318207 
	C159.162735,254.593628 159.478821,256.202545 158.863266,257.337524 
	C158.087555,258.767822 157.621719,260.132629 158.268295,261.488403 
	C158.819839,262.644897 159.357162,263.557556 158.058670,264.390472 
	C156.572418,265.343781 154.822342,265.358795 153.367233,264.636047 
	C151.043686,263.481995 151.957764,261.091705 152.095596,259.280182 
	C152.210236,257.773376 150.393646,254.925568 154.550980,255.064514 
	C155.437637,255.548828 155.926132,255.826721 156.787613,255.318207 
z"/>
<path fill="#FCFCFC" opacity="1.000000" stroke="none" 
	d="
M207.830383,254.995193 
	C211.656723,256.125854 209.484192,258.716156 209.777664,260.656525 
	C206.854843,260.617249 207.207169,265.850586 204.542557,264.687775 
	C201.430038,263.329498 203.225342,259.674683 203.065430,257.049133 
	C202.842392,253.387360 205.903656,255.655746 207.830383,254.995193 
z"/>
<path fill="#FBFBFB" opacity="1.000000" stroke="none" 
	d="
M253.787598,255.318207 
	C258.468109,256.146790 254.459473,259.156555 255.400085,261.140625 
	C257.143951,264.819031 254.865265,265.263275 251.834351,265.020020 
	C249.724579,264.850739 248.769424,263.823547 249.031845,261.875946 
	C249.353241,259.490936 249.258774,256.922699 251.577667,255.069519 
	C252.437622,255.548553 252.926041,255.826614 253.787598,255.318207 
z"/>
<path fill="#FAFAFA" opacity="1.000000" stroke="none" 
	d="
M244.791809,264.481781 
	C241.587814,265.402740 240.408905,263.668182 241.126984,261.204193 
	C241.689163,259.275208 242.041855,258.275482 239.879440,257.248749 
	C238.454346,256.572113 239.854553,255.272690 240.482605,255.195786 
	C242.597229,254.936890 244.780273,254.848236 246.892838,255.086807 
	C248.527679,255.271423 248.347794,257.376251 247.583572,257.520142 
	C242.972427,258.388550 245.771255,261.909271 244.791809,264.481781 
z"/>
<path fill="#F8F8F8" opacity="1.000000" stroke="none" 
	d="
M81.545563,264.756226 
	C74.877113,264.930237 74.003510,263.851837 74.959610,257.707703 
	C75.232140,255.956406 75.937485,254.920242 77.763046,255.022354 
	C79.675430,255.129333 79.256248,256.904297 78.932289,257.620789 
	C77.333885,261.155945 82.824570,261.453613 81.545563,264.756226 
z"/>
<path fill="#FEFEFE" opacity="1.000000" stroke="none" 
	d="
M136.344421,255.411209 
	C142.432693,254.384537 139.448318,258.812378 139.869049,261.012054 
	C140.091919,262.177246 141.299255,264.716644 138.635773,264.904327 
	C135.735809,265.108643 135.981720,262.675354 135.999008,260.691223 
	C136.013321,259.048523 136.032288,257.405914 136.344421,255.411209 
z"/>
<path fill="#FEFEFE" opacity="1.000000" stroke="none" 
	d="
M204.319153,156.972137 
	C205.143311,154.658386 207.180405,155.013367 209.455765,154.999390 
	C210.001846,155.610352 210.022308,156.338226 210.379776,156.811646 
	C211.743576,158.617722 210.755875,159.780899 209.496887,161.035843 
	C208.397400,162.131805 207.255341,162.453918 206.019058,161.494278 
	C204.599609,160.392441 203.442307,159.101059 204.319153,156.972137 
z"/>
<path fill="#FFFFFF" opacity="1.000000" stroke="none" 
	d="
M181.089478,149.733490 
	C179.601364,149.977402 179.092438,150.961426 178.160431,151.887558 
	C176.090912,152.058395 174.411987,152.051178 173.976273,149.635834 
	C173.474197,146.852585 175.603119,146.233887 177.617401,145.037537 
	C178.152725,145.185089 178.347549,145.475006 178.773270,145.895172 
	C179.167816,146.185684 179.331482,146.345917 179.745941,146.740936 
	C180.270111,147.192856 180.543457,147.409973 180.928558,147.867615 
	C181.373199,148.509079 181.463715,148.964554 181.089478,149.733490 
z"/>
<path fill="#FFFFFF" opacity="1.000000" stroke="none" 
	d="
M181.136963,54.963768 
	C180.519135,53.785782 179.832672,54.960205 179.158340,54.935619 
	C177.174545,54.863285 174.504547,55.857056 174.104813,52.792782 
	C173.815857,50.577843 175.610641,48.802158 177.656891,49.152153 
	C180.279007,49.600655 181.966476,51.439045 180.714569,54.771614 
	C181.059601,55.054668 181.094559,54.974499 181.136963,54.963768 
z"/>
<path fill="#FFFFFF" opacity="1.000000" stroke="none" 
	d="
M129.346466,133.245789 
	C128.529587,132.994156 128.059158,132.988297 127.236099,132.970856 
	C126.582199,132.580734 126.468712,132.152451 126.750137,131.394226 
	C128.963089,130.062302 128.481766,127.404686 130.499435,126.072449 
	C130.860672,128.315369 133.970062,129.564926 132.910736,132.614502 
	C131.894791,133.853317 130.844208,133.993759 129.346466,133.245789 
z"/>
<path fill="#FEFEFE" opacity="1.000000" stroke="none" 
	d="
M44.199234,254.992188 
	C47.106155,255.567657 46.147449,257.047241 45.267040,258.163696 
	C44.210609,259.503296 42.595078,259.302277 41.279526,258.643402 
	C39.996281,258.000763 39.543350,256.729309 40.277138,255.355453 
	C41.229668,253.572052 42.490929,253.886749 44.199234,254.992188 
z"/>
<path fill="#FEFEFE" opacity="1.000000" stroke="none" 
	d="
M186.067719,86.823685 
	C182.936111,86.938660 180.043671,86.876480 176.658966,86.706970 
	C176.166672,86.599640 176.168427,86.519615 176.171188,86.509384 
	C176.831894,85.809639 177.489838,85.120125 178.573883,84.215302 
	C179.385620,83.619835 179.845764,83.472626 180.690216,83.779175 
	C182.545822,84.516258 184.091644,85.032524 185.839539,85.831184 
	C186.130051,86.291229 186.218491,86.468872 186.067719,86.823685 
z"/>
<path fill="#FEFEFE" opacity="1.000000" stroke="none" 
	d="
M268.036621,257.966675 
	C266.372375,257.444153 265.433350,260.041290 264.284149,258.437103 
	C263.812897,257.779236 263.705994,256.263214 264.147949,255.669479 
	C265.146454,254.328094 266.950775,254.795059 268.204224,255.158508 
	C269.637115,255.573975 269.094360,256.918152 268.036621,257.966675 
z"/>
<path fill="#FFFFFF" opacity="1.000000" stroke="none" 
	d="
M153.520996,106.684753 
	C155.222366,108.332245 155.946198,109.565948 153.057434,109.487328 
	C151.601791,109.447723 150.152969,109.157784 148.293060,108.969368 
	C148.131500,108.455307 148.377930,107.952919 148.311432,107.164673 
	C147.998505,106.878815 147.974136,106.963341 147.941132,106.992432 
	C149.594742,106.278770 151.307297,105.759743 153.520996,106.684753 
z"/>
<path fill="#FFFFFF" opacity="1.000000" stroke="none" 
	d="
M131.894104,52.561062 
	C130.000839,54.834793 127.805580,54.057564 125.250336,53.105515 
	C126.946281,50.521435 129.272491,50.669693 131.894104,52.561062 
z"/>
<path fill="#FDFDFD" opacity="1.000000" stroke="none" 
	d="
M259.920166,261.040833 
	C261.580627,261.932861 262.885590,262.823822 261.085968,264.417084 
	C260.267365,265.141846 259.070984,265.422607 258.454956,264.692474 
	C257.182861,263.184753 258.355316,262.035950 259.920166,261.040833 
z"/>
<path fill="#FFFFFF" opacity="1.000000" stroke="none" 
	d="
M108.157906,95.824768 
	C106.896996,95.687752 105.793999,95.375496 104.345650,95.031006 
	C103.825592,94.832527 103.650887,94.666283 103.737488,94.249863 
	C103.998779,93.999695 103.999321,93.583038 103.999451,93.374710 
	C104.631828,92.983162 105.264069,92.799934 106.031448,92.308746 
	C107.757614,92.026001 108.104691,93.380791 108.874596,94.708679 
	C108.760582,95.204773 108.532623,95.421288 108.157906,95.824768 
z"/>
<path fill="#FEFEFE" opacity="1.000000" stroke="none" 
	d="
M164.685944,263.759918 
	C163.399551,265.151764 162.056671,265.657715 161.136246,264.335083 
	C160.505402,263.428589 160.979553,261.975098 162.180054,261.413147 
	C164.214310,260.460968 164.659576,261.929504 164.685944,263.759918 
z"/>
<path fill="#FEFEFE" opacity="1.000000" stroke="none" 
	d="
M117.073639,261.042969 
	C118.643120,262.032104 119.811295,263.179016 118.545006,264.685730 
	C117.936874,265.409332 116.735901,265.138306 115.917145,264.417633 
	C114.114998,262.831390 115.422188,261.939117 117.073639,261.042969 
z"/>
<path fill="#FEFEFE" opacity="1.000000" stroke="none" 
	d="
M129.010971,133.388885 
	C130.022293,132.999954 131.044601,132.999924 132.450241,132.999664 
	C132.890884,133.739792 132.948181,134.480133 133.059021,135.589523 
	C131.437393,135.816147 129.204330,136.720261 129.010971,133.388885 
z"/>
<path fill="#FEFEFE" opacity="1.000000" stroke="none" 
	d="
M208.836990,70.674576 
	C207.385361,70.964523 205.949005,70.972961 204.520355,70.872078 
	C203.824890,70.822960 203.240067,70.306351 203.708191,69.641769 
	C203.995071,69.234482 204.806686,69.196800 205.744537,68.977020 
	C207.369156,68.736801 208.109970,69.547035 208.836990,70.674576 
z"/>
<path fill="#FFFFFF" opacity="1.000000" stroke="none" 
	d="
M165.371246,116.976860 
	C164.698563,115.661118 164.354401,114.207870 164.005127,112.377312 
	C164.166733,111.887764 164.333450,111.775520 164.750092,111.831894 
	C165.497299,112.328133 165.994614,112.655762 166.803253,113.012833 
	C167.028564,114.451630 167.084625,115.913940 165.371246,116.976860 
z"/>
<path fill="#FEFEFE" opacity="1.000000" stroke="none" 
	d="
M195.284149,162.054520 
	C195.196228,160.259476 194.737122,158.458084 194.070145,156.290131 
	C194.437927,155.633072 194.873077,155.531509 195.648788,155.727509 
	C196.271027,157.296066 196.587280,158.704834 196.951660,160.473480 
	C196.523026,161.202347 196.046249,161.571304 195.284149,162.054520 
z"/>
<path fill="#FFFFFF" opacity="1.000000" stroke="none" 
	d="
M154.332855,120.907547 
	C154.164001,118.908043 155.257477,118.020073 157.482620,118.004021 
	C157.255966,119.505745 156.402176,120.712387 154.332855,120.907547 
z"/>
<path fill="#FEFEFE" opacity="1.000000" stroke="none" 
	d="
M194.852371,52.684532 
	C193.327209,53.037811 191.974701,52.871937 192.007034,50.516777 
	C193.477539,50.220749 193.849365,51.718704 194.852371,52.684532 
z"/>
<path fill="#E3E3E3" opacity="1.000000" stroke="none" 
	d="
M253.680267,255.043365 
	C253.838257,255.993073 254.335419,257.306030 253.078201,257.519135 
	C251.912766,257.716705 252.192490,256.508026 252.009216,255.463318 
	C252.438156,255.070724 252.891632,255.015961 253.680267,255.043365 
z"/>
<path fill="#FFFFFF" opacity="1.000000" stroke="none" 
	d="
M184.315704,162.852188 
	C183.963821,161.333649 184.119873,159.978455 186.472168,160.007202 
	C186.786667,161.486313 185.274857,161.847519 184.315704,162.852188 
z"/>
<path fill="#FEFEFE" opacity="1.000000" stroke="none" 
	d="
M200.942047,160.126038 
	C200.731857,158.647125 198.857727,156.549637 202.635864,156.580063 
	C202.233551,157.070099 201.959045,157.611557 201.909546,158.675018 
	C201.689331,159.173218 201.546997,159.346832 201.224060,159.804688 
	C201.043457,160.088913 200.940338,160.093979 200.942047,160.126038 
z"/>
<path fill="#E3E3E3" opacity="1.000000" stroke="none" 
	d="
M156.680267,255.043411 
	C156.833298,255.981201 157.356888,257.284729 156.097321,257.498901 
	C154.968689,257.690765 155.162552,256.521912 155.006195,255.461472 
	C155.438095,255.070984 155.891602,255.016129 156.680267,255.043411 
z"/>
<path fill="#FEFEFE" opacity="1.000000" stroke="none" 
	d="
M209.370270,118.060539 
	C209.020020,116.696396 209.722870,116.001297 211.484955,116.007233 
	C211.692947,117.276009 210.908173,117.867287 209.370270,118.060539 
z"/>
<path fill="#FEFEFE" opacity="1.000000" stroke="none" 
	d="
M97.089951,93.178391 
	C98.458435,93.167709 98.937912,94.051483 98.956085,95.697922 
	C97.891548,95.538200 96.904541,94.903938 97.089951,93.178391 
z"/>
<path fill="#FFFFFF" opacity="1.000000" stroke="none" 
	d="
M206.356415,127.989273 
	C206.082855,126.999687 205.720779,125.734886 207.489288,125.069496 
	C208.431168,126.354263 207.419998,127.056442 206.356415,127.989273 
z"/>
<path fill="#FFFFFF" opacity="1.000000" stroke="none" 
	d="
M99.672913,65.090393 
	C99.909302,66.530724 99.091278,67.027901 97.496033,66.995880 
	C97.321991,65.712242 98.097565,65.104095 99.672913,65.090393 
z"/>
<path fill="#FEFEFE" opacity="1.000000" stroke="none" 
	d="
M210.334839,99.836937 
	C210.064087,98.779739 209.803391,97.583336 211.512817,97.055313 
	C212.415543,98.343460 211.447937,99.053131 210.334839,99.836937 
z"/>
<path fill="#FEFEFE" opacity="1.000000" stroke="none" 
	d="
M128.661163,83.983215 
	C129.465073,84.300079 130.030563,84.818825 129.402222,85.389099 
	C128.767532,85.965111 128.317505,85.385155 128.044083,84.450531 
	C127.999992,84.172569 128.431992,84.010155 128.661163,83.983215 
z"/>
<path fill="#FEFEFE" opacity="1.000000" stroke="none" 
	d="
M128.283615,161.052063 
	C128.089157,160.049667 128.138428,158.991318 128.196045,157.753937 
	C129.309265,158.527878 128.864609,159.417404 129.000031,160.498383 
	C128.842651,160.887589 128.685013,160.941849 128.283615,161.052063 
z"/>
<path fill="#FFFFFF" opacity="1.000000" stroke="none" 
	d="
M135.985840,113.649895 
	C135.706909,114.461464 135.261124,114.953667 134.606888,114.443901 
	C134.421021,114.299065 134.616608,113.664696 134.873199,113.103874 
	C135.467590,112.954201 135.740616,113.107559 135.985840,113.649895 
z"/>
<path fill="#FEFEFE" opacity="1.000000" stroke="none" 
	d="
M133.035889,80.699142 
	C132.659607,80.997749 132.154526,80.993378 131.271378,80.974716 
	C131.304092,79.842758 132.011612,79.784096 133.035889,80.699142 
z"/>
<path fill="#FEFEFE" opacity="1.000000" stroke="none" 
	d="
M151.734100,93.945656 
	C151.875076,94.361946 152.151505,95.011642 151.390793,95.127022 
	C151.315842,95.138390 151.169357,94.678146 151.052444,94.177223 
	C151.048798,93.917648 151.507263,93.997360 151.734100,93.945656 
z"/>
<path fill="#FEFEFE" opacity="1.000000" stroke="none" 
	d="
M100.259659,134.528549 
	C100.786041,134.447052 101.357315,134.426620 101.928589,134.406189 
	C101.584488,134.539154 101.240387,134.672119 100.567307,134.765549 
	C100.238327,134.726013 100.304558,134.589630 100.259659,134.528549 
z"/>
<path fill="#FEFEFE" opacity="1.000000" stroke="none" 
	d="
M127.298370,163.029205 
	C127.081856,162.790909 127.216309,162.514893 127.635269,162.151154 
	C127.737274,162.327805 127.647133,162.637146 127.298370,163.029205 
z"/>
<path fill="#FEFEFE" opacity="1.000000" stroke="none" 
	d="
M201.879028,100.721405 
	C201.534103,100.844650 201.316391,100.625603 201.105850,100.107300 
	C201.336304,100.072395 201.634048,100.262749 201.879028,100.721405 
z"/>
<path fill="#FEFEFE" opacity="1.000000" stroke="none" 
	d="
M200.882294,98.721413 
	C200.539078,98.846703 200.319641,98.628532 200.105896,98.110390 
	C200.335571,98.074211 200.633743,98.263390 200.882294,98.721413 
z"/>
<path fill="#FEFEFE" opacity="1.000000" stroke="none" 
	d="
M210.882568,50.721363 
	C210.540115,50.848522 210.320343,50.632374 210.103912,50.117859 
	C210.333435,50.080055 210.632751,50.266239 210.882568,50.721363 
z"/>
<path fill="#FFFFFF" opacity="1.000000" stroke="none" 
	d="
M201.245422,160.051788 
	C201.099533,159.852875 201.155594,159.616821 201.521667,159.190186 
	C201.703583,159.337967 201.575485,159.676315 201.245422,160.051788 
z"/>
<path fill="#FEFEFE" opacity="1.000000" stroke="none" 
	d="
M151.011414,93.694328 
	C150.768494,93.912483 150.499115,93.779434 150.146667,93.365654 
	C150.325546,93.262459 150.632645,93.348526 151.011414,93.694328 
z"/>
<path fill="#FEFEFE" opacity="1.000000" stroke="none" 
	d="
M97.707199,90.136772 
	C97.915337,90.447502 97.830864,90.720573 97.490524,91.342300 
	C97.294640,91.160339 97.354614,90.629730 97.707199,90.136772 
z"/>
<path fill="#FFFFFF" opacity="1.000000" stroke="none" 
	d="
M103.275085,72.885017 
	C103.148964,72.542068 103.363518,72.325417 103.876610,72.118965 
	C103.913277,72.348526 103.726814,72.642578 103.275085,72.885017 
z"/>
<path fill="#FFFFFF" opacity="1.000000" stroke="none" 
	d="
M186.022186,76.689453 
	C185.908676,76.968109 185.704300,76.978668 185.193161,76.973404 
	C185.105789,76.527596 185.155792,75.767578 186.022186,76.689453 
z"/>
<path fill="#FFFFFF" opacity="1.000000" stroke="none" 
	d="
M129.723480,81.120331 
	C129.895660,81.430038 129.738815,81.639488 129.343063,81.893265 
	C129.263519,81.678619 129.360275,81.372780 129.723480,81.120331 
z"/>
<path fill="#FEFEFE" opacity="1.000000" stroke="none" 
	d="
M144.276459,120.880653 
	C144.102997,120.572014 144.258774,120.362427 144.652557,120.107559 
	C144.733139,120.321640 144.638168,120.627457 144.276459,120.880653 
z"/>
<path fill="#FEFEFE" opacity="1.000000" stroke="none" 
	d="
M210.876678,103.721207 
	C210.530960,103.844872 210.314346,103.627365 210.103500,103.113052 
	C210.334549,103.077408 210.633392,103.265327 210.876678,103.721207 
z"/>
<path fill="#FFFFFF" opacity="1.000000" stroke="none" 
	d="
M104.312508,72.018143 
	C104.093292,71.778885 104.224907,71.505333 104.642212,71.147446 
	C104.745216,71.324532 104.657021,71.631454 104.312508,72.018143 
z"/>
<path fill="#FEFEFE" opacity="1.000000" stroke="none" 
	d="
M211.028900,84.701790 
	C210.790588,84.918365 210.514801,84.784035 210.151245,84.365593 
	C210.327896,84.263466 210.637192,84.353264 211.028900,84.701790 
z"/>
<path fill="#000000" opacity="1.000000" stroke="none" 
	d="
M126.542595,131.061157 
	C126.968605,131.526031 126.979996,131.938065 126.937408,132.654663 
	C124.016434,135.480804 120.152641,137.424896 122.765846,142.507858 
	C123.693352,144.311966 121.827721,143.154480 121.202629,143.315521 
	C117.208237,144.344482 115.564957,147.752045 117.986870,151.232162 
	C119.446236,153.329147 118.020660,153.894394 117.405678,155.302505 
	C116.495995,157.385391 115.760696,157.014725 114.182358,156.125702 
	C113.373314,155.669998 111.972977,155.715057 110.888443,156.529587 
	C110.468102,156.845291 109.886978,158.941772 109.064537,156.833328 
	C108.793198,156.137711 108.838905,155.144348 110.052635,155.016907 
	C110.540245,154.965714 111.173523,155.059021 111.486351,154.790497 
	C113.330017,153.207855 114.229561,151.060715 115.378494,149.012421 
	C116.659843,146.728043 110.174469,145.159897 115.498543,143.724731 
	C117.490005,143.187927 119.866913,142.097809 120.017784,139.187103 
	C120.149605,136.643875 119.888420,134.209396 117.881256,132.454086 
	C116.475067,131.224350 117.965935,130.404556 118.190178,129.555649 
	C118.416733,128.698013 119.524658,128.882004 120.126526,129.671783 
	C121.759186,131.814148 124.090370,130.735535 126.542595,131.061157 
z"/>
<path fill="#000000" opacity="1.000000" stroke="none" 
	d="
M115.217072,92.125893 
	C115.874802,86.932854 113.225319,85.606430 108.578293,86.118530 
	C109.446045,83.289352 110.315018,80.260986 110.260818,77.073723 
	C112.576866,77.011131 112.058952,78.569405 111.950600,79.528770 
	C111.725235,81.524162 112.862457,83.355560 114.226944,83.520645 
	C121.825714,84.440025 116.879440,89.764954 117.413239,92.934334 
	C116.424225,92.924416 115.870033,92.765892 115.217072,92.125893 
z"/>
<path fill="#000000" opacity="1.000000" stroke="none" 
	d="
M127.136902,101.766548 
	C124.514328,104.111504 123.872147,107.702179 125.382042,109.451271 
	C128.862671,113.483330 123.913254,112.236549 123.288765,112.904198 
	C121.408859,114.914078 122.116158,111.239769 120.781403,111.239632 
	C120.581413,111.239609 120.162079,110.575279 120.213287,110.510635 
	C121.961502,108.303856 124.665894,106.691566 121.809746,103.054474 
	C120.207207,101.013763 122.580681,98.045036 121.998016,94.505806 
	C123.736267,97.248375 121.686531,101.293213 126.556732,101.060989 
	C127.100601,101.267776 127.244034,101.421448 127.136902,101.766548 
z"/>
<path fill="#000000" opacity="1.000000" stroke="none" 
	d="
M104.011246,137.623413 
	C104.461380,133.949951 109.989265,134.495758 109.236549,130.299026 
	C109.997391,130.889374 111.015297,131.332672 111.457283,132.105392 
	C112.080223,133.194443 108.031616,138.361084 106.858948,137.923996 
	C105.764748,137.516159 104.955391,139.577301 104.011246,137.623413 
z"/>
<path fill="#000000" opacity="1.000000" stroke="none" 
	d="
M195.527161,108.021187 
	C195.928162,108.750702 195.962326,109.461914 195.976685,110.529297 
	C193.953918,110.925568 191.950989,110.965660 189.594177,111.119705 
	C189.872971,107.700142 191.366684,105.744331 195.527161,108.021187 
z"/>
<path fill="#000000" opacity="1.000000" stroke="none" 
	d="
M187.694916,112.241898 
	C186.059372,115.210579 187.217377,117.850792 188.087631,121.138786 
	C186.727936,119.750397 184.247345,119.562950 184.418610,119.423828 
	C186.999023,117.327873 181.486862,113.366417 186.550781,111.960587 
	C187.153137,111.917213 187.381226,111.913902 187.694916,112.241898 
z"/>
<path fill="#FEFEFE" opacity="1.000000" stroke="none" 
	d="
M189.611450,91.184525 
	C191.735168,89.995674 193.540329,89.555801 195.193085,91.454422 
	C193.834091,93.744286 192.097626,94.756348 189.219818,93.097908 
	C188.605118,92.294884 188.884262,91.787163 189.611450,91.184525 
z"/>
<path fill="#000000" opacity="1.000000" stroke="none" 
	d="
M183.222778,127.419830 
	C181.723007,127.108475 180.319687,126.586639 181.113312,125.216309 
	C182.233627,123.281921 181.638351,126.669044 183.150421,126.088745 
	C186.116562,124.950386 186.656723,128.071136 188.130386,129.590897 
	C188.985291,130.472580 188.680939,130.977570 187.943924,131.498657 
	C186.858505,132.266083 186.762573,130.794495 185.956573,130.305695 
	C184.989639,129.270844 183.914230,128.782516 183.222778,127.419830 
z"/>
<path fill="#FEFEFE" opacity="1.000000" stroke="none" 
	d="
M165.276031,111.751335 
	C164.833328,112.000397 164.666672,112.000290 164.250000,112.000092 
	C159.955475,109.222412 164.208466,108.250702 164.905304,105.956947 
	C166.440964,108.126091 166.124405,109.804565 165.276031,111.751335 
z"/>
<path fill="#000000" opacity="1.000000" stroke="none" 
	d="
M153.938751,106.553009 
	C152.131638,107.278946 150.214264,106.401512 148.248718,107.349091 
	C149.911850,105.247040 152.858459,104.443047 153.991394,101.427376 
	C153.991394,103.001175 153.991394,104.574982 153.938751,106.553009 
z"/>
<path fill="#000000" opacity="1.000000" stroke="none" 
	d="
M200.018402,136.850800 
	C200.450699,138.097198 201.380859,138.758408 200.643890,140.257034 
	C199.233002,139.484329 197.125549,139.780045 197.029480,137.279099 
	C196.996796,136.428467 196.592010,135.212082 198.076706,135.041504 
	C199.088120,134.925293 200.055252,134.996613 200.018402,136.850800 
z"/>
<path fill="#000000" opacity="1.000000" stroke="none" 
	d="
M115.981812,105.115768 
	C116.167519,106.646957 116.337372,107.783958 116.507225,108.920952 
	C114.698700,107.241035 114.442688,104.047462 110.799370,104.807465 
	C109.829041,105.009872 110.813629,103.953346 110.940742,103.485672 
	C111.126488,102.802269 111.270798,101.389015 112.193550,102.832016 
	C113.164375,104.350227 115.096375,103.373726 115.981812,105.115768 
z"/>
<path fill="#000000" opacity="1.000000" stroke="none" 
	d="
M189.551300,90.888206 
	C189.611862,91.498650 189.340912,91.957108 188.977020,92.687164 
	C187.783249,93.149147 188.183945,94.305389 187.367416,94.971359 
	C186.838989,95.093605 186.600830,95.109894 186.288391,94.775917 
	C187.349426,92.151413 188.286636,89.880035 185.972473,87.327164 
	C185.828537,87.000847 185.989655,86.570328 186.015625,86.341957 
	C189.504837,86.001762 187.742508,89.482651 189.551300,90.888206 
z"/>
<path fill="#000000" opacity="1.000000" stroke="none" 
	d="
M180.913696,150.388092 
	C180.889313,149.581528 180.945663,149.162979 181.021149,148.426285 
	C182.362305,148.300919 184.069183,147.121582 184.913071,148.925369 
	C185.339325,149.836487 184.934875,150.923706 183.964554,151.476791 
	C182.816284,152.131332 181.575409,152.726669 180.913696,150.388092 
z"/>
<path fill="#FEFEFE" opacity="1.000000" stroke="none" 
	d="
M186.117157,97.588989 
	C184.394043,99.491196 182.167419,99.747597 180.945175,98.164780 
	C180.132675,97.112572 181.847702,96.004562 183.754730,96.033539 
	C184.794907,96.482368 185.846725,96.295906 186.117157,97.588989 
z"/>
<path fill="#FFFFFF" opacity="1.000000" stroke="none" 
	d="
M197.631927,117.006935 
	C197.999374,117.163902 198.011612,117.329033 197.996048,117.491508 
	C197.863586,118.875473 198.402481,120.639832 196.187256,120.886452 
	C195.331802,120.981689 194.322693,120.782700 194.429321,119.752312 
	C194.591080,118.189331 195.388840,116.960739 197.631927,117.006935 
z"/>
<path fill="#000000" opacity="1.000000" stroke="none" 
	d="
M197.625183,148.351593 
	C197.961517,148.971054 198.126328,149.422562 197.973434,149.599411 
	C196.706573,151.064804 200.827087,152.697281 197.830139,154.006821 
	C197.371384,154.207275 196.723267,153.974442 196.162735,153.942001 
	C196.372559,151.946823 194.814133,149.608032 197.625183,148.351593 
z"/>
<path fill="#000000" opacity="1.000000" stroke="none" 
	d="
M193.641754,128.293121 
	C194.306747,127.192337 194.785110,126.374382 195.281082,125.526291 
	C197.566498,126.759811 196.941025,128.709854 195.885773,130.291901 
	C195.139145,131.411270 193.739044,131.669739 193.027008,129.495621 
	C193.178802,128.933395 193.316971,128.754669 193.641754,128.293121 
z"/>
<path fill="#FEFEFE" opacity="1.000000" stroke="none" 
	d="
M179.132751,111.024155 
	C180.106644,111.210785 180.986496,111.225197 181.261688,111.640366 
	C181.709457,112.315979 181.124222,112.860840 180.369843,112.888763 
	C178.901657,112.943130 177.430023,112.904686 175.821487,112.904686 
	C176.473190,111.376198 177.645660,111.248184 179.132751,111.024155 
z"/>
<path fill="#FFFFFF" opacity="1.000000" stroke="none" 
	d="
M129.557251,116.202911 
	C128.122360,113.426788 128.122360,113.426788 132.217270,113.160423 
	C131.323456,114.254211 130.580780,115.163033 129.557251,116.202911 
z"/>
<path fill="#FFFFFF" opacity="1.000000" stroke="none" 
	d="
M114.613945,60.001625 
	C114.862183,61.628162 114.226196,62.847694 112.377312,62.815880 
	C111.696228,62.804161 111.132492,62.281944 111.221184,61.540348 
	C111.452202,59.608414 113.037277,60.158154 114.613945,60.001625 
z"/>
<path fill="#FFFFFF" opacity="1.000000" stroke="none" 
	d="
M161.889435,97.320190 
	C162.155411,96.264503 162.163162,95.248856 163.232742,95.421158 
	C164.794830,95.672806 164.934616,96.998680 164.991608,98.641754 
	C164.831467,99.096069 164.669022,99.192940 164.259827,99.149872 
	C164.013046,99.009918 163.999741,98.999893 163.992722,98.995300 
	C163.399567,98.296761 162.171432,98.651978 161.889435,97.320190 
z"/>
<path fill="#FEFEFE" opacity="1.000000" stroke="none" 
	d="
M197.989044,97.707764 
	C196.582474,98.689888 195.333694,99.497292 193.604385,98.430222 
	C194.875366,96.587166 196.433380,96.730461 197.989044,97.707764 
z"/>
<path fill="#000000" opacity="1.000000" stroke="none" 
	d="
M193.358246,61.356293 
	C194.259293,60.130737 195.016785,59.239502 195.774292,58.348259 
	C196.399643,58.889736 197.315506,59.499279 196.906693,60.353622 
	C196.182938,61.866100 194.898209,62.496010 193.358246,61.356293 
z"/>
<path fill="#FFFFFF" opacity="1.000000" stroke="none" 
	d="
M127.261276,101.962830 
	C126.886345,101.957970 126.970589,101.540131 126.963882,101.327118 
	C127.116318,100.105225 127.341217,99.115791 128.672058,99.208893 
	C129.431732,99.262047 129.857285,99.839706 129.799484,100.539459 
	C129.691498,101.846672 128.649353,101.927925 127.261276,101.962830 
z"/>
<path fill="#000000" opacity="1.000000" stroke="none" 
	d="
M200.025146,74.846100 
	C200.160263,73.562988 199.525696,72.242180 200.984146,72.112320 
	C202.191925,72.004768 201.984146,73.145142 201.977890,73.887436 
	C201.967255,75.154213 202.190231,76.908516 200.025146,74.846100 
z"/>
<path fill="#000000" opacity="1.000000" stroke="none" 
	d="
M186.372971,97.951370 
	C185.865143,96.785240 184.702896,97.182976 184.133545,96.347946 
	C184.678055,95.616020 185.237549,95.192398 186.005569,94.597214 
	C186.363022,94.527519 186.511948,94.629402 186.869003,94.904297 
	C185.866028,95.917381 189.178757,97.323151 186.372971,97.951370 
z"/>
<path fill="#FEFEFE" opacity="1.000000" stroke="none" 
	d="
M183.006897,127.516983 
	C184.477539,127.220940 184.848969,128.718857 185.849731,129.684692 
	C184.322708,130.038544 182.973099,129.869858 183.006897,127.516983 
z"/>
<path fill="#FEFEFE" opacity="1.000000" stroke="none" 
	d="
M188.808075,83.250000 
	C189.144363,82.245636 189.288742,81.491272 189.433136,80.736916 
	C189.810959,80.944862 190.361313,81.058723 190.535294,81.377823 
	C191.137253,82.481750 190.309174,83.107986 189.284042,83.861359 
	C188.872070,83.833336 188.744125,83.666664 188.808075,83.250000 
z"/>
<path fill="#FEFEFE" opacity="1.000000" stroke="none" 
	d="
M161.681519,97.049522 
	C162.560959,97.501053 163.122559,98.002403 163.834930,98.747231 
	C162.812836,98.730186 161.301636,99.656189 160.550323,98.053276 
	C160.476959,97.896767 161.076477,97.424850 161.681519,97.049522 
z"/>
<path fill="#000000" opacity="1.000000" stroke="none" 
	d="
M199.476807,116.977371 
	C199.556564,115.068031 201.806976,116.669861 202.475433,115.217110 
	C202.677017,115.799530 205.292542,116.114006 202.337128,117.088013 
	C201.279648,117.110062 200.559433,117.053528 199.476807,116.977371 
z"/>
<path fill="#FFFFFF" opacity="1.000000" stroke="none" 
	d="
M180.973511,83.685532 
	C180.555557,84.000000 180.111099,84.000000 179.333313,84.000000 
	C179.163849,83.230774 179.200241,81.871140 179.515472,81.803078 
	C180.459549,81.599243 180.767105,82.546860 180.973511,83.685532 
z"/>
<path fill="#FEFEFE" opacity="1.000000" stroke="none" 
	d="
M179.357635,122.364571 
	C179.813141,123.555862 179.190842,123.471237 178.606247,123.186867 
	C178.301819,123.038773 178.126434,122.625404 177.892761,122.331856 
	C178.315079,122.290573 178.737381,122.249298 179.357635,122.364571 
z"/>
<path fill="#FFFFFF" opacity="1.000000" stroke="none" 
	d="
M188.714264,83.033226 
	C189.000000,83.000000 189.000000,83.500000 189.000000,83.750000 
	C188.605881,84.565468 188.027893,85.059387 187.549622,84.314598 
	C187.094620,83.606033 187.771729,83.238884 188.714264,83.033226 
z"/>
<path fill="#FEFEFE" opacity="1.000000" stroke="none" 
	d="
M103.683235,94.002274 
	C103.998779,93.999695 103.999832,94.499252 104.000069,94.749016 
	C103.136627,94.744820 101.881462,96.009293 101.502441,94.866516 
	C101.239037,94.072342 102.605263,94.081230 103.683235,94.002274 
z"/>
<path fill="#FFFFFF" opacity="1.000000" stroke="none" 
	d="
M115.029709,92.163986 
	C115.637764,92.024010 116.232895,92.162430 116.934471,92.592339 
	C116.567711,93.237808 116.094521,93.591797 115.310814,93.972130 
	C114.825592,93.832352 114.650879,93.666229 114.737167,93.249802 
	C115.004379,92.813797 115.010590,92.628098 115.029709,92.163986 
z"/>
<path fill="#FEFEFE" opacity="1.000000" stroke="none" 
	d="
M200.424484,107.086082 
	C200.007095,108.351372 198.773926,107.896080 197.350189,107.997330 
	C197.764572,106.822609 198.950272,107.016060 200.424484,107.086082 
z"/>
<path fill="#FFFFFF" opacity="1.000000" stroke="none" 
	d="
M114.999527,59.999252 
	C115.623192,59.072746 116.528893,58.896694 117.533417,59.116982 
	C117.726547,59.159336 117.856445,59.490009 118.015518,59.687672 
	C117.236000,59.791912 116.456474,59.896156 115.339294,60.001038 
	C115.001640,60.001678 115.000000,60.000000 114.999527,59.999252 
z"/>
<path fill="#F0F0F0" opacity="1.000000" stroke="none" 
	d="
M204.968658,87.715454 
	C204.344772,87.924294 203.621826,87.906555 203.493256,87.077621 
	C203.465790,86.900482 203.830841,86.662453 204.015060,86.452484 
	C204.326630,86.773331 204.638199,87.094177 204.968658,87.715454 
z"/>
<path fill="#FEFEFE" opacity="1.000000" stroke="none" 
	d="
M171.894318,103.640060 
	C172.166458,103.363525 172.570969,103.249588 172.983353,103.192726 
	C173.054443,103.182930 173.158966,103.415642 173.248032,103.536331 
	C172.841797,103.631546 172.435577,103.726753 171.894318,103.640060 
z"/>
<path fill="#FEFEFE" opacity="1.000000" stroke="none" 
	d="
M195.011246,81.756363 
	C194.901276,81.590073 194.955200,81.422264 195.009125,81.254456 
	C195.064453,81.421249 195.119797,81.588043 195.011246,81.756363 
z"/>
<path fill="#FEFEFE" opacity="1.000000" stroke="none" 
	d="
M205.722595,76.601448 
	C205.849457,76.441269 206.068893,76.418106 206.288330,76.394943 
	C206.130615,76.509453 205.972885,76.623962 205.722595,76.601448 
z"/>
<path fill="#FEFEFE" opacity="1.000000" stroke="none" 
	d="
M191.011169,62.756447 
	C190.901184,62.590103 190.955139,62.422234 191.009094,62.254364 
	C191.064438,62.421211 191.119781,62.588062 191.011169,62.756447 
z"/>
<path fill="#FEFEFE" opacity="1.000000" stroke="none" 
	d="
M201.257980,60.643936 
	C201.008102,60.629177 200.871887,60.495377 200.735672,60.361580 
	C200.947662,60.416016 201.159637,60.470459 201.257980,60.643936 
z"/>
<path fill="#000000" opacity="1.000000" stroke="none" 
	d="
M108.126274,86.119293 
	C107.786697,86.466995 107.483009,86.853256 106.979980,87.406418 
	C106.632874,87.471298 106.485107,87.369263 106.131180,87.093887 
	C106.150978,86.059769 106.815453,85.985268 107.889221,86.125320 
	C108.237862,86.231102 108.162163,86.157845 108.126274,86.119293 
z"/>
<path fill="#000000" opacity="1.000000" stroke="none" 
	d="
M196.071060,155.505127 
	C195.529144,155.921875 195.103531,155.956421 194.360321,155.942429 
	C194.484100,154.876053 194.941696,153.903320 196.071060,155.505127 
z"/>
<path fill="#FEFEFE" opacity="1.000000" stroke="none" 
	d="
M114.699890,93.019745 
	C114.998169,92.999496 114.999687,93.499008 115.000000,93.748741 
	C114.560295,94.002800 114.120293,94.007118 113.327568,93.996109 
	C113.450439,93.667183 113.926025,93.353584 114.699890,93.019745 
z"/>
<path fill="#FEFEFE" opacity="1.000000" stroke="none" 
	d="
M126.011139,94.756500 
	C125.901131,94.590118 125.955086,94.422218 126.009041,94.254318 
	C126.064400,94.421204 126.119751,94.588089 126.011139,94.756500 
z"/>
<path fill="#FEFEFE" opacity="1.000000" stroke="none" 
	d="
M132.277588,101.398590 
	C132.150711,101.558784 131.931244,101.581955 131.711792,101.605118 
	C131.869522,101.490601 132.027252,101.376076 132.277588,101.398590 
z"/>
<path fill="#000000" opacity="1.000000" stroke="none" 
	d="
M189.128616,111.121735 
	C188.788071,111.468605 188.483444,111.854073 187.979645,112.406380 
	C187.632751,112.471199 187.485016,112.369179 187.131149,112.093849 
	C187.151535,111.058792 187.816956,110.985306 188.891418,111.126755 
	C189.240295,111.233673 189.164536,111.160324 189.128616,111.121735 
z"/>
<path fill="#FEFEFE" opacity="1.000000" stroke="none" 
	d="
M197.026520,113.300377 
	C197.325989,113.470596 197.642639,113.938278 197.979034,114.702957 
	C197.680420,114.532585 197.362045,114.065216 197.026520,113.300377 
z"/>
<path fill="#FEFEFE" opacity="1.000000" stroke="none" 
	d="
M145.243683,116.011154 
	C145.409927,115.901230 145.577728,115.955147 145.745514,116.009064 
	C145.578751,116.064369 145.411972,116.119682 145.243683,116.011154 
z"/>
<path fill="#E3E3E3" opacity="1.000000" stroke="none" 
	d="
M187.335114,123.318573 
	C187.347702,123.056305 187.486862,122.912491 187.626022,122.768684 
	C187.571243,122.991463 187.516464,123.214249 187.335114,123.318573 
z"/>
<path fill="#FEFEFE" opacity="1.000000" stroke="none" 
	d="
M108.219292,95.892044 
	C108.100647,95.676796 108.287712,95.415459 108.780441,95.107994 
	C108.899193,95.323296 108.712158,95.584656 108.219292,95.892044 
z"/>
<path fill="#FEFEFE" opacity="1.000000" stroke="none" 
	d="
M164.099182,99.176239 
	C164.013046,99.009918 164.503525,99.002365 164.748718,99.000793 
	C164.724365,99.113655 164.454834,99.228104 164.099182,99.176239 
z"/>
<path fill="#FEFEFE" opacity="1.000000" stroke="none" 
	d="
M208.467194,55.449425 
	C208.523010,55.416050 208.411377,55.482800 208.467194,55.449425 
z"/>
<path fill="#FEFEFE" opacity="1.000000" stroke="none" 
	d="
M206.532593,54.550362 
	C206.476974,54.583584 206.588226,54.517143 206.532593,54.550362 
z"/>
<path fill="#FEFEFE" opacity="1.000000" stroke="none" 
	d="
M153.449615,97.532555 
	C153.416397,97.476944 153.482819,97.588165 153.449615,97.532555 
z"/>
<path fill="#FEFEFE" opacity="1.000000" stroke="none" 
	d="
M203.467361,61.449432 
	C203.523117,61.416088 203.411606,61.482773 203.467361,61.449432 
z"/>
<path fill="#FEFEFE" opacity="1.000000" stroke="none" 
	d="
M179.888840,146.763382 
	C179.676071,146.891449 179.417099,146.716049 179.112000,146.237488 
	C179.324951,146.109192 179.583878,146.284393 179.888840,146.763382 
z"/>
<path fill="#FEFEFE" opacity="1.000000" stroke="none" 
	d="
M113.010239,94.013763 
	C112.915474,94.052719 112.810547,94.079002 112.840225,94.043030 
	C112.974846,93.980774 113.000076,94.001099 113.010239,94.013763 
z"/>
<path fill="#FEFEFE" opacity="1.000000" stroke="none" 
	d="
M190.467529,156.449692 
	C190.523117,156.416504 190.411942,156.482880 190.467529,156.449692 
z"/>
<path fill="#FEFEFE" opacity="1.000000" stroke="none" 
	d="
M200.467224,92.449562 
	C200.522980,92.416222 200.411484,92.482903 200.467224,92.449562 
z"/>
<path fill="#FEFEFE" opacity="1.000000" stroke="none" 
	d="
M201.449585,129.532562 
	C201.416351,129.476944 201.482819,129.588165 201.449585,129.532562 
z"/>
<path fill="#F0F0F0" opacity="1.000000" stroke="none" 
	d="
M205.008545,87.993317 
	C205.138199,88.138359 205.259735,88.289932 205.381271,88.441505 
	C205.289352,88.393707 205.197418,88.345917 205.046524,88.156998 
	C204.987549,88.015869 205.000412,87.999840 205.008545,87.993317 
z"/>
<path fill="#FEFEFE" opacity="1.000000" stroke="none" 
	d="
M193.636902,128.145477 
	C193.738953,128.321686 193.649506,128.633087 193.300339,129.028305 
	C193.083710,128.790253 193.218643,128.513092 193.636902,128.145477 
z"/>
<path fill="#FEFEFE" opacity="1.000000" stroke="none" 
	d="
M178.532608,127.550354 
	C178.476990,127.583580 178.588226,127.517136 178.532608,127.550354 
z"/>
<path fill="#FEFEFE" opacity="1.000000" stroke="none" 
	d="
M107.449432,75.532684 
	C107.416054,75.476868 107.482819,75.588493 107.449432,75.532684 
z"/>
<path fill="#FEFEFE" opacity="1.000000" stroke="none" 
	d="
M198.056732,71.136627 
	C198.130020,71.134392 198.249481,71.282509 198.368927,71.430626 
	C198.280243,71.382744 198.191574,71.334862 198.056732,71.136627 
z"/>
<path fill="#FEFEFE" opacity="1.000000" stroke="none" 
	d="
M197.993256,71.005203 
	C197.868057,70.863647 197.749603,70.716789 197.631149,70.569931 
	C197.718597,70.617737 197.806046,70.665543 197.952026,70.849808 
	C198.010574,70.986275 198.000000,70.999893 197.993256,71.005203 
z"/>
<path fill="#FEFEFE" opacity="1.000000" stroke="none" 
	d="
M194.550323,63.467438 
	C194.583557,63.523056 194.517090,63.411816 194.550323,63.467438 
z"/>
<path fill="#FEFEFE" opacity="1.000000" stroke="none" 
	d="
M106.532608,144.550354 
	C106.476974,144.583572 106.588234,144.517151 106.532608,144.550354 
z"/>
<path fill="#FEFEFE" opacity="1.000000" stroke="none" 
	d="
M200.449570,132.532562 
	C200.416306,132.476898 200.482834,132.588242 200.449570,132.532562 
z"/>
<path fill="#000000" opacity="1.000000" stroke="none" 
	d="
M111.308823,226.795227 
	C105.758469,220.214706 107.127731,212.169495 113.832130,209.985870 
	C118.378548,208.505096 122.967743,210.688934 124.647163,215.132385 
	C126.507896,220.055557 124.041168,226.174042 119.649338,228.026382 
	C116.692307,229.273575 114.124863,228.703247 111.308823,226.795227 
z"/>
<path fill="#D0D0D0" opacity="1.000000" stroke="none" 
	d="
M106.668365,211.099854 
	C106.179718,212.649887 106.179718,212.649887 103.929253,212.725891 
	C104.249039,211.398575 105.402992,211.373016 106.668365,211.099854 
z"/>
<path fill="#000000" opacity="1.000000" stroke="none" 
	d="
M51.307922,236.572357 
	C52.785950,238.385864 51.517265,239.976593 50.531639,241.676025 
	C48.829575,239.828690 51.651146,238.514236 51.307922,236.572357 
z"/>
<path fill="#000000" opacity="1.000000" stroke="none" 
	d="
M183.361633,218.980560 
	C180.528183,216.531647 183.823196,214.312561 183.124756,211.732025 
	C182.327560,208.786621 183.591141,205.500092 182.219589,201.960175 
	C185.197815,201.960175 188.099045,201.937286 190.999802,201.964966 
	C196.917450,202.021423 199.952881,204.867111 199.998810,210.363037 
	C200.046921,216.119965 197.006577,218.969772 190.774597,218.997070 
	C188.457703,219.007233 186.140717,218.997314 183.361633,218.980560 
z"/>
<path fill="#FEFEFE" opacity="1.000000" stroke="none" 
	d="
M205.360657,110.994850 
	C205.638489,109.822327 206.401840,108.793839 207.946854,109.301750 
	C208.191574,109.382202 208.253159,110.019753 208.399399,110.399734 
	C207.509399,110.600533 206.619415,110.801331 205.360657,110.994850 
z"/>
<path fill="#FEFEFE" opacity="1.000000" stroke="none" 
	d="
M205.002838,111.003784 
	C204.613693,111.714218 204.221130,112.420044 203.674515,113.402824 
	C202.940353,111.922493 202.026169,110.735443 204.752716,110.840012 
	C204.991882,110.987579 204.999435,110.999184 205.002838,111.003784 
z"/>
<path fill="#000000" opacity="1.000000" stroke="none" 
	d="
M88.623680,258.240906 
	C89.463028,259.172272 90.771805,259.814240 89.448616,260.769073 
	C88.836449,261.210846 87.666817,261.344696 87.279030,260.499756 
	C86.850060,259.565094 86.377975,258.194214 88.623680,258.240906 
z"/>
<path fill="#000000" opacity="1.000000" stroke="none" 
	d="
M188.642700,259.261658 
	C188.028885,260.697113 186.967484,261.427460 185.534134,260.823914 
	C184.765579,260.500305 184.941483,259.755371 185.365326,259.191650 
	C186.278503,257.977112 187.273193,257.325928 188.642700,259.261658 
z"/>
</svg>